#!OML:ASF H:\Dans Jumps\Project 1\Capture day 1\Session 1\subject.ASF
:FULLY-SPECIFIED
:DEGREES
603
root 0.570017 17.7068 -1.21177 6.28889 0.395193 -1.55731
lowerback -3.57336 -0.471805 0.433495
upperback 2.23309 -0.718642 1.61708
thorax 4.32385 -0.369905 1.37414
lowerneck -11.852 0.362407 -1.9631
upperneck 37.2033 0.86694 0.603973
head 14.8713 0.175224 0.73858
rclavicle 7.45443e-016 -1.41137e-014
rhumerus -27.1263 -16.9904 -78.7479
rradius 22.6857
rwrist 35.6959
rhand -20.4356 -26.9158
rfingers 7.12502
rthumb 5.91929 -56.8132
lclavicle 7.45443e-016 -1.41137e-014
lhumerus -25.0533 -1.91068 89.2811
lradius 17.3137
lwrist 8.13823
lhand -24.1423 -6.22811
lfingers 7.12502
lthumb 2.33998 23.7388
rfemur -11.7917 -1.85142 19.7683
rtibia 21.7995
rfoot -14.7247 -0.20885
rtoes 15.8275
lfemur -8.63298 7.68639 -18.4939
ltibia 18.4839
lfoot -11.8658 6.48737
ltoes 4.09081
604
root 0.56952 17.7066 -1.21358 6.28826 0.408203 -1.53822
lowerback -3.57778 -0.470106 0.410479
upperback 2.23964 -0.71497 1.60908
thorax 4.33325 -0.368659 1.37903
lowerneck -11.8637 0.365197 -1.95372
upperneck 37.1946 0.871286 0.598192
head 14.8699 0.177786 0.735201
rclavicle 2.23633e-015 1.05356e-014
rhumerus -27.1457 -17.003 -78.7409
rradius 22.6897
rwrist 35.6702
rhand -20.4115 -26.9013
rfingers 7.12502
rthumb 5.94259 -56.798
lclavicle 2.23633e-015 1.05356e-014
lhumerus -25.0702 -1.92104 89.2894
lradius 17.317
lwrist 8.14202
lhand -24.1569 -6.23862
lfingers 7.12502
lthumb 2.32586 23.7284
rfemur -11.8072 -1.85333 19.7493
rtibia 21.8227
rfoot -14.7326 -0.222281
rtoes 15.8127
lfemur -8.63644 7.67785 -18.514
ltibia 18.4732
lfoot -11.856 6.48195
ltoes 4.07532
605
root 0.569008 17.7064 -1.21534 6.2845 0.422082 -1.52892
lowerback -3.57988 -0.467936 0.398741
upperback 2.24602 -0.711358 1.60393
thorax 4.34106 -0.367154 1.38053
lowerneck -11.8717 0.366342 -1.95122
upperneck 37.1849 0.872167 0.599955
head 14.867 0.178945 0.73562
rclavicle -2.6339e-015 -6.55989e-015
rhumerus -27.1653 -17.0303 -78.7286
rradius 22.6868
rwrist 35.6614
rhand -20.3773 -26.8902
rfingers 7.12502
rthumb 5.97558 -56.7859
lclavicle -2.6339e-015 -6.55989e-015
lhumerus -25.093 -1.93585 89.3019
lradius 17.3204
lwrist 8.13339
lhand -24.1863 -6.24613
lfingers 7.12502
lthumb 2.29743 23.7212
rfemur -11.817 -1.85448 19.7412
rtibia 21.8422
rfoot -14.7388 -0.234019
rtoes 15.8121
lfemur -8.63793 7.66724 -18.5226
ltibia 18.4655
lfoot -11.8468 6.48064
ltoes 4.05366
606
root 0.568484 17.7061 -1.21701 6.27791 0.434091 -1.52381
lowerback -3.57951 -0.46478 0.391724
upperback 2.2525 -0.706713 1.60026
thorax 4.34753 -0.36502 1.38102
lowerneck -11.8781 0.365898 -1.95379
upperneck 37.1743 0.870693 0.605339
head 14.8634 0.178891 0.738067
rclavicle 3.27995e-015 7.15625e-015
rhumerus -27.1837 -17.0708 -78.711
rradius 22.6767
rwrist 35.667
rhand -20.3383 -26.8823
rfingers 7.12502
rthumb 6.0132 -56.777
lclavicle 3.27995e-015 7.15625e-015
lhumerus -25.1217 -1.95642 89.319
lradius 17.3265
lwrist 8.11817
lhand -24.2288 -6.25111
lfingers 7.12502
lthumb 2.2564 23.7167
rfemur -11.821 -1.85459 19.7374
rtibia 21.8557
rfoot -14.7431 -0.243601
rtoes 15.8152
lfemur -8.63704 7.65785 -18.5261
ltibia 18.4613
lfoot -11.8409 6.4815
ltoes 4.03479
